# xmcd
#
# Track frame offsets:
#	150
#	19444
#	35175
#	56641
#	79650
#	99048
#	119022
#	144517
#	159116
#	179052
#
# Disc length: 2769 seconds
#
# Revision: 1
# Processed by: cddbd v1.4PL0 Copyright (c) Steve Scherf et al.
# Submitted via: audiograbber 1.82.02
#
DISCID=850acf0a
DTITLE=Lights Out By Nine - Good Morning Mr. Universe
DYEAR=2003
DGENRE=Blues
TTITLE0=Feel Like Robert Johnson (Part 1)
TTITLE1=Friend Of Mine
TTITLE2=Bad News Fever
TTITLE3=Bunny's Blue Tango
TTITLE4=Nothing But The Blues
TTITLE5=Find A Better Way
TTITLE6=On A Night Like This
TTITLE7=Some Day Baby
TTITLE8=Where White Men Sing The Blues
TTITLE9=Feels Like Rain
EXTD=Band Homepage:  http://www.lightsoutbynine.co.uk\nPublished by Blues Matte
EXTD=rs! - http://bluesmatters.com\n
EXTT0=
EXTT1=
EXTT2=
EXTT3=
EXTT4=
EXTT5=
EXTT6=
EXTT7=
EXTT8=
EXTT9=
PLAYORDER=
